<svg width="64" height="64" viewBox="0 0 64 64" fill="none" xmlns="http://www.w3.org/2000/svg">
  <defs>
    <linearGradient id="bg" x1="10" y1="8" x2="54" y2="56" gradientUnits="userSpaceOnUse">
      <stop stop-color="#131620"/>
      <stop offset="1" stop-color="#0B0D14"/>
    </linearGradient>
    <linearGradient id="accent" x1="18" y1="16" x2="48" y2="48" gradientUnits="userSpaceOnUse">
      <stop stop-color="#60A5FA"/>
      <stop offset="1" stop-color="#818CF8"/>
    </linearGradient>
    <filter id="glow" x="6" y="8" width="52" height="52" filterUnits="userSpaceOnUse" color-interpolation-filters="sRGB">
      <feGaussianBlur stdDeviation="5" result="blur"/>
      <feComposite in="SourceGraphic" in2="blur" operator="over"/>
    </filter>
  </defs>

  <rect x="4" y="4" width="56" height="56" rx="16" fill="url(#bg)"/>
  <rect x="4.5" y="4.5" width="55" height="55" rx="15.5" stroke="#222635"/>
  <circle cx="42" cy="20" r="10" fill="#2563EB" opacity="0.18"/>
  <path d="M20 46V18H34C40.0751 18 45 22.9249 45 29C45 35.0751 40.0751 40 34 40H27.5V46H20Z" fill="url(#accent)" filter="url(#glow)"/>
  <path d="M27.5 33H33.5C35.7091 33 37.5 31.2091 37.5 29C37.5 26.7909 35.7091 25 33.5 25H27.5V33Z" fill="#0B0D14"/>
  <path d="M18 47H46" stroke="#60A5FA" stroke-opacity="0.45" stroke-width="2" stroke-linecap="round"/>
</svg>
